<?xml version="1.0" encoding="UTF-8" standalone="no"?>
<!-- Created with Inkscape (http://www.inkscape.org/) -->

<svg
   width="224.88573mm"
   height="70.218552mm"
   viewBox="0 0 224.88572 70.218552"
   version="1.1"
   id="svg1"
   xmlns="http://www.w3.org/2000/svg"
   xmlns:svg="http://www.w3.org/2000/svg">
  <defs
     id="defs1" />
  <g
     id="layer1"
     transform="translate(7.0048075,-75.06556)">
    <path
       id="rect1"
       style="fill:#000000;stroke:#000000;stroke-width:1.74969;stroke-linecap:round"
       d="m 124.81774,78.343794 0.14865,8.702543 -3.42342,5.351124 v 24.184569 h -5.16764 v -12.19564 h -8.68165 V 83.077123 L 93.844401,81.442057 v 61.629433 l -3.307292,-0.14864 v -26.54752 l -5.025968,0.74321 v 5.87137 l -12.95743,0.89185 v 10.02761 l -5.78776,0.86277 v -5.58106 l -9.71517,-1.63507 v -12.6555 l -5.78776,4.16199 v 18.39681 h -8.268229 v -8.68164 H 30.179036 V 119.0625 H 24.18457 v 19.22363 h -8.061523 v 6.12314 H 15.709635 V 133.3252 H 9.5084635 v 5.37434 H 3.5139974 v 5.70973 H -7.0048075 217.88092 206.29232 v -5.40417 l -2.89388,-4.74524 v -8.30407 l -2.27377,-1.93235 v 17.56998 h -4.34082 v -4.96093 h -13.64257 v -6.40788 l -12.60905,0.89185 v 12.10367 l -3.514,-0.14864 v -7.05912 h -4.13412 v 3.62184 l -9.71516,0.28759 v -7.09363 l -3.92741,-0.74321 v 5.78776 h -8.26823 v -15.2312 l -6.61459,-2.90498 V 92.397461 l -0.98476,-12.634597 -3.27013,-3.648705 z M 66.765951,143.66048 h 5.78776 v 0.74879 h -5.78776 z m -36.586915,0.20671 h 12.815756 8.268229 v 0.54208 H 30.179036 Z"
       clip-path="none" />
  </g>
</svg>
